{"title":"My.Friends.Hot.Girl.Holly.Michaels.XXX.mp4","uid":10618626,"size":266937312,"categoryP":"porn","categoryS":"movies","magnet":"?xt=urn:btih:7fadfe8e20ad804c7359ccf12f77d076f49d82b5&amp;dn=My.Friends.Hot.Girl.Holly.Michaels.XXX.mp4&amp;tr=udp%3A%2F%2Ftracker.openbittorrent.com%3A80&amp;tr=udp%3A%2F%2Fopen.demonii.com%3A1337&amp;tr=udp%3A%2F%2Ftracker.coppersurfer.tk%3A6969&amp;tr=udp%3A%2F%2Fexodus.desync.com%3A6969","seeders":2,"leechers":0,"uploader":"XXXmegathor","files":1,"time":1406150003,"description":"My.Friends.Hot.Girl.Holly.Michaels.XXX\n\nSCREENIES &lt;a href=&quot;\nhttp://www.xxxtrapics.com/image/R2&quot; rel=&quot;nofollow&quot; target=&quot;_NEW&quot;&gt;\nhttp://www.xxxtrapics.com/image/R2&lt;/a&gt;\n\n\nDuration : 23mn 9s\nBit rate mode : Variable\nBit rate : 1 400 Kbps\nWidth : 854 pixels\nHeight : 480 pixels\nDisplay aspect ratio : 16:9\nFrame rate mode : Constant\nFrame rate : 30.000 fps\nColor space : YUV\nChroma subsampling : 4:2:0\nBit depth : 8 bits\nScan type : Progressive\nBits/(Pixel*Frame) : 0.114\nStream size : 232 MiB (91%)\nWriting library : x264 core 120\nEncoding settings : cabac=1 / ref=4 / deblock=1:0:0 / analyse=0x3:0x113 / me=umh / subme=7 / psy=0 / mixed_ref=1 / me_range=16 / chroma_me=1 / trellis=1 / 8x8dct=1 / cqm=0 / deadzone=21,11 / fast_pskip=0 / chroma_qp_offset=0 / threads=2 / sliced_threads=0 / nr=0 / decimate=1 / interlaced=0 / bluray_compat=0 / constrained_intra=0 / bframes=16 / b_pyramid=2 / b_adapt=1 / b_bias=0 / direct=3 / weightb=1 / open_gop=0 / weightp=2 / keyint=300 / keyint_min=25 / scenecut=40 / intra_refresh=0 / rc=2pass / mbtree=0 / bitrate=1400 / ratetol=1.0 / qcomp=0.60 / qpmin=10 / qpmax=51 / qpstep=4 / cplxblur=20.0 / qblur=0.5 / ip_ratio=1.40 / pb_ratio=1.30 / aq=1:1.00\nLanguage : English\nEncoded date : UTC 2012-07-06 19:53:23\nTagged date : UTC 2012-07-06 19:53:23\n\nAudio\nID : 2\nFormat : AAC\nFormat/Info : Advanced Audio Codec\nFormat profile : LC\nCodec ID : 40\nDuration : 23mn 9s\nBit rate mode : Variable\nBit rate : 127 Kbps\nMaximum bit rate : 128 Kbps\nChannel(s) : 2 channels\nChannel positions : Front: L R\nSampling rate : 44.1 KHz\nCompression mode : Lossy\nStream size : 21.1 MiB (8%)\nLanguage : English\nEncoded date : UTC 2012-07-06 19:53:23\nTagged date : UTC 2012-07-06 19:53:23\n\n","torrent":{"xt":"urn:btih:7fadfe8e20ad804c7359ccf12f77d076f49d82b5","amp;dn":"My.Friends.Hot.Girl.Holly.Michaels.XXX.mp4","amp;tr":["udp%3A%2F%2Ftracker.openbittorrent.com%3A80","udp%3A%2F%2Fopen.demonii.com%3A1337","udp%3A%2F%2Ftracker.coppersurfer.tk%3A6969","udp%3A%2F%2Fexodus.desync.com%3A6969"],"infoHash":"7fadfe8e20ad804c7359ccf12f77d076f49d82b5","infoHashBuffer":{"type":"Buffer","data":[127,173,254,142,32,173,128,76,115,89,204,241,47,119,208,118,244,157,130,181]},"announce":[],"urlList":[]}}